<svg version="1.0" xmlns="http://www.w3.org/2000/svg" width="170px" height="170px" viewBox="0 0 170 170" preserveAspectRatio="xMidYMid meet">
 <g fill="#ffffff">
  <path d="M40.10 138.50 l0.15 -2.05 6.65 -0.10 c5.30 -0.10 6.75 -0.25 7.10 -0.85 0.95 -1.50 0.15 -1.75 -6.90 -1.90 l-7.10 -0.15 0 -4.45 c0 -6.30 -0.10 -6.25 11.75 -6.25 l9 0 -0.05 2 -0.05 2 -6.40 0.15 c-6.35 0.15 -7.75 0.50 -7.75 1.90 0 0.55 1.40 0.70 7 0.70 l7 0 0 4.40 c0 6.45 0.25 6.30 -11.35 6.50 l-9.20 0.15 0.15 -2.05z"/>
  <path d="M65.40 139.70 c-0.75 -0.40 -1.60 -1.15 -1.90 -1.70 -0.25 -0.50 -0.50 -4.20 -0.50 -8.20 l0 -7.30 10.25 0 10.25 0 0 2.25 0 2.20 -6.85 0.15 c-6.75 0.15 -6.90 0.20 -7.05 1.30 -0.15 1.10 -0.15 1.10 6.85 1.10 l7.05 0 0 2 0 2 -6.70 0 c-7 0 -8.15 0.35 -6.60 1.90 0.65 0.70 2.10 0.90 7.05 1.05 l6.25 0.15 0 1.95 0 1.95 -8.35 0 c-6.45 -0.05 -8.70 -0.20 -9.75 -0.80z"/>
  <path d="M86 131.45 l0 -9.05 8.90 0.20 c9.70 0.15 10.65 0.45 11.60 3.10 0.65 1.90 0.65 9.05 -0.05 11.45 -0.80 2.95 -2.30 3.35 -12.20 3.35 l-8.25 0 0 -9.05z m13.65 3.50 c1.10 -1.35 1.15 -5.30 0.05 -6.85 -0.65 -0.95 -1.20 -1.10 -4 -1.10 l-3.20 0 0 4.40 c0 2.45 0.15 4.60 0.40 4.80 0.20 0.25 1.60 0.30 3.10 0.15 2 -0.25 3 -0.60 3.65 -1.40z"/>
  <path d="M109.35 140.15 c-0.30 -0.60 -0.05 -3.10 0.35 -3.50 0.20 -0.20 2.75 -0.30 5.70 -0.25 5.90 0.20 8.10 -0.30 8.10 -1.85 0 -0.95 -0.40 -1.05 -7.10 -1.15 l-7.05 -0.15 0.10 -4.25 c0.05 -2.30 0.35 -4.50 0.65 -4.85 1 -1.20 4.20 -1.65 12.05 -1.65 l7.85 0 0 2.25 0 2.25 -6.40 0 c-4.60 0 -6.65 0.20 -7.35 0.65 -1.90 1.45 -0.35 1.85 6.80 1.85 l7 0 -0.15 4.65 -0.15 4.60 -1.75 0.85 c-1.45 0.75 -3.15 0.90 -10.10 0.90 -4.60 0 -8.45 -0.15 -8.55 -0.35z"/>
  <path d="M78.75 114.55 c-5.10 -0.80 -13.25 -3.65 -13.25 -4.60 0 -0.25 0.95 -0.85 2.15 -1.30 14.45 -5.75 41.70 -22.70 56.10 -34.90 1.75 -1.50 3.45 -2.75 3.75 -2.75 0.65 0 0.25 5.30 -0.80 10.40 -3.95 18.80 -20.50 32.65 -39.95 33.35 -3 0.10 -6.65 0 -8 -0.20z"/>
  <path d="M22.75 113.55 c-2.30 -0.60 -3.70 -1.65 -4.55 -3.45 -1.45 -3.05 0.25 -7.50 5.25 -13.70 3.25 -4.05 11.70 -12.35 16.15 -15.90 l2.85 -2.25 0.05 -6 c0.05 -8.35 1.55 -14.35 5.30 -21.15 5.25 -9.35 15.15 -17.05 26 -20.20 5.70 -1.65 16.70 -1.65 22.35 0 7.70 2.20 13.55 5.70 19.40 11.60 4.15 4.15 7.15 8.80 9.30 14.40 0.75 1.95 1.60 3.60 1.90 3.60 0.25 0 2.65 -1.80 5.35 -4 4.40 -3.65 4.80 -4.10 4.75 -5.65 -0.05 -1.50 -0.30 -1.80 -1.75 -2.35 -1.80 -0.65 -1.85 -1 -0.60 -4.25 0.45 -1.15 0.75 -1.25 3.25 -1.25 2.60 0 2.80 -0.10 3.95 -1.85 1.70 -2.70 3.15 -3.90 6.50 -5.40 4.10 -1.80 4.50 -1.55 4.10 2.75 -0.35 3.90 -0.90 5.45 -2.90 8.10 l-1.40 1.80 1 2.35 c1.10 2.60 1 2.95 -1.65 4.85 l-1.45 1.05 -1.15 -1.40 c-1.10 -1.25 -1.35 -1.30 -2.90 -0.80 -0.95 0.35 -2.15 1.05 -2.65 1.65 -0.55 0.55 -3.20 3 -5.95 5.35 -24.85 21.40 -65.15 43.45 -92.15 50.35 -6.95 1.80 -15.30 2.60 -18.35 1.75z m23.30 -13.60 c2.30 -0.30 4.45 -0.70 4.80 -0.90 0.40 -0.20 -0.15 -1.35 -1.60 -3.55 -2.35 -3.40 -4.80 -9.05 -5.80 -13.25 l-0.60 -2.45 -2.80 3.05 c-5.05 5.50 -7.25 10.30 -6.35 13.85 0.40 1.60 2.05 2.70 4.85 3.25 3.05 0.60 2.85 0.60 7.50 0z m7.95 -24.45 c0 -3.15 -0.10 -3.50 -1 -3.50 -0.90 0 -1 0.35 -1 3.50 0 3.15 0.10 3.50 1 3.50 0.90 0 1 -0.35 1 -3.50z m7.10 2.65 c1.15 -1.05 1.35 -6.15 0.20 -6.15 -0.55 0 -0.80 0.75 -0.90 2.65 -0.15 2.20 -0.30 2.60 -1.15 2.60 -0.85 0 -1 -0.40 -1.15 -2.60 -0.10 -1.90 -0.35 -2.65 -0.90 -2.65 -1.10 0 -1 5.80 0.20 6.45 1.25 0.75 2.65 0.65 3.70 -0.30z m4.90 0 c0 -0.50 0.75 -1.25 1.65 -1.65 0.85 -0.40 1.70 -1.15 1.75 -1.65 0.30 -1.45 -1.35 -2.85 -3.25 -2.85 l-1.65 0 0 3.50 c0 2.80 0.15 3.50 0.75 3.50 0.40 0 0.75 -0.40 0.75 -0.85z m10.10 0 c1.15 -1.05 1.35 -6.15 0.20 -6.15 -0.55 0 -0.80 0.75 -0.90 2.65 -0.15 2.20 -0.30 2.60 -1.15 2.60 -0.85 0 -1 -0.40 -1.15 -2.60 -0.10 -1.90 -0.35 -2.65 -0.90 -2.65 -1.10 0 -1 5.80 0.20 6.45 1.25 0.75 2.65 0.65 3.70 -0.30z m4.90 -2.65 c0 -2.80 -0.15 -3.50 -0.75 -3.50 -0.60 0 -0.75 0.70 -0.75 3.50 0 2.80 0.15 3.50 0.75 3.50 0.60 0 0.75 -0.70 0.75 -3.50z m14.85 -4.05 c2.05 -1.70 2.65 -5 1.45 -7.40 -2.35 -4.50 -9.10 -4.05 -10.75 0.75 -0.90 2.55 -0.45 4.45 1.50 6.25 2.10 1.95 5.65 2.15 7.80 0.40z m19.15 -3.05 c0 -0.75 -3.10 -0.20 -3.65 0.65 -0.30 0.45 -0.35 1.20 -0.20 1.65 0.30 0.75 0.55 0.70 2.10 -0.50 0.95 -0.70 1.75 -1.55 1.75 -1.80z m-42.35 -9 c1.90 -2.20 0.10 -5.60 -2.85 -5.30 -3.30 0.35 -4.25 4.60 -1.40 6.10 1.60 0.90 3 0.60 4.25 -0.80z m40.15 -2.60 c1.90 -1.90 2.15 -3.50 0.95 -5.80 -0.95 -1.85 -2.15 -2.50 -4.60 -2.50 -3.90 0 -6.15 4.40 -3.95 7.70 1.80 2.80 5.15 3.05 7.60 0.60z m-22.10 -4.35 c1.75 -1.40 1.65 -3.65 -0.30 -5.10 -1.75 -1.30 -3.65 -0.80 -4.65 1.15 -0.70 1.35 -0.70 1.65 0 2.95 1.15 2.30 2.85 2.65 4.95 1z m5.30 -12.40 c0.65 -1.25 0.65 -1.35 -0.30 -2.25 -1.15 -1.15 -2.45 -1 -3.20 0.45 -0.55 1 -0.55 1.35 0 2 0.90 1.05 2.85 0.95 3.50 -0.20z m-19.25 -0.35 c1 -1.05 0.80 -2.15 -0.55 -3.05 -0.95 -0.60 -1.20 -0.55 -2.25 0.30 -1.05 0.80 -1.10 1.10 -0.55 2.25 0.65 1.50 2.15 1.70 3.35 0.50z"/>
  <path d="M66 74.50 c0 -0.55 0.35 -1 0.75 -1 0.40 0 0.75 0.45 0.75 1 0 0.55 -0.35 1 -0.75 1 -0.40 0 -0.75 -0.45 -0.75 -1z"/>
 </g>
</svg>